<svg
  xmlns="http://www.w3.org/2000/svg"
  height="24"
  viewBox="0 -960 960 960"
  width="24"
>
  <path
    d="M688.977-335.262q-56.151 0-95.39-39.306-39.239-39.305-39.239-95.457 0-56.151 39.305-95.39 39.306-39.239 95.457-39.239 56.152 0 95.391 39.305 39.239 39.306 39.239 95.457 0 56.152-39.305 95.391-39.306 39.239-95.458 39.239Zm.166-100.349q14.64 0 24.444-9.903 9.804-9.903 9.804-24.543 0-14.64-9.903-24.444-9.903-9.805-24.543-9.805-14.64 0-24.444 9.904-9.805 9.903-9.805 24.543 0 14.64 9.904 24.444 9.903 9.804 24.543 9.804ZM434.348-27.565V-158.26q0-25.093 11.978-47.199 11.978-22.106 33.37-34.802 33.695-20.13 70.891-32.913 37.196-12.782 76.457-19.913l62 67.652 61.435-67.652q39.261 7.131 76.239 19.913 36.978 12.783 70.674 32.913 21.392 12.943 33.87 34.711 12.478 21.768 12.478 46.725v131.261H434.348Zm99.914-100.348H642l-47.782-53.565q-15.739 3.304-30.761 9.326-15.022 6.022-29.195 13.665v30.574Zm201.826 0h107.303l2.827-30.348q-14.87-8.869-30.457-14.391-15.587-5.522-31.891-8.826l-47.782 53.565Zm-94.088 0Zm94.088 0ZM206.783-99.086q-44.305 0-75.153-30.848-30.848-30.848-30.848-75.153v-546.434q0-44.305 30.848-75.153 30.848-30.849 75.153-30.849h546.434q44.305 0 75.153 30.849 30.848 30.848 30.848 75.153v150.823q-20.522-25.652-46.87-45.348-26.348-19.696-59.131-27.391v-78.084H206.783v546.434h153.565q-3 11.706-4.5 23.413-1.5 11.706-1.5 23.413v59.175H206.783Zm80-492.435h233.65q17.521-21.696 38.912-37.349 21.391-15.652 46.608-25.261v-17.39h-319.17v80Zm0 153.217h191.521q-2.826-20.435-1.717-40.435 1.108-20 5.717-39.565H286.783v80Zm0 153.217h121.608q13.261-12.957 28.87-22.501 15.609-9.543 32.565-17.239v-40.26H286.783v80Zm-80 80v-546.434 77.649-10.782 479.567Zm482.261-264.871Z"
    fill="#ffffff"
  />
</svg>
