<svg
  xmlns="http://www.w3.org/2000/svg"
  height="24"
  viewBox="0 -960 960 960"
  width="24"
>
  <path
    d="M283.391-283.391h280v-80h-280v80Zm0-156.609h393.218v-80H283.391v80Zm0-156.609h393.218v-80H283.391v80Zm-76.608 495.827q-44.305 0-75.153-30.848-30.848-30.848-30.848-75.153v-546.434q0-44.305 30.848-75.153 30.848-30.848 75.153-30.848h546.434q44.305 0 75.153 30.848 30.848 30.848 30.848 75.153v546.434q0 44.305-30.848 75.153-30.848 30.848-75.153 30.848H206.783Zm0-106.001h546.434v-546.434H206.783v546.434Zm0-546.434v546.434-546.434Z"
    fill="#ffffff"
  />
</svg>
