<svg
  xmlns="http://www.w3.org/2000/svg"
  height="24"
  viewBox="0 -960 960 960"
  width="24"
>
  <path
    d="M438-219.782 289.782-367.435l63.653-63.652L438-346.522l168.565-168.565 63.653 63.652L438-219.782Zm-231.217 159q-44.305 0-75.153-30.848-30.848-30.848-30.848-75.153v-546.434q0-44.305 30.848-75.153 30.848-30.848 75.153-30.848H240v-80h93.001v80h293.998v-80H720v80h33.217q44.305 0 75.153 30.848 30.848 30.848 30.848 75.153v546.434q0 44.305-30.848 75.153-30.848 30.848-75.153 30.848H206.783Zm0-106.001h546.434V-560H206.783v393.217Zm0-473.217h546.434v-73.217H206.783V-640Zm0 0v-73.217V-640Z"
    fill="#ffffff"
  />
</svg>
