<svg
  xmlns="http://www.w3.org/2000/svg"
  height="24"
  viewBox="0 -960 960 960"
  width="24"
>
  <path
    d="M67-92.303q-18.922 0-31.723-12.8-12.8-12.8-12.8-31.722 0-18.682 12.8-31.319 12.8-12.638 31.722-12.638h826.002q18.921 0 31.722 12.641 12.8 12.64 12.8 31.326t-12.8 31.599q-12.801 12.913-31.722 12.913H66.999Zm99.783-128.479q-44.305 0-75.153-30.848-30.848-30.848-30.848-75.153v-426.434q0-44.305 30.848-75.153 30.848-30.848 75.153-30.848h626.434q44.305 0 75.153 30.848 30.848 30.848 30.848 75.153v426.434q0 44.305-30.848 75.153-30.848 30.848-75.153 30.848H166.783Zm0-106.001h626.434v-426.434H166.783v426.434Zm0 0v-426.434 426.434Z"
    fill="#ffffff"
  />
</svg>
