<svg xmlns="http://www.w3.org/2000/svg" viewBox="0 0 24 24" stroke-width="1.5" height="48" width="48"><defs></defs><title>smiley-sleepy</title><path d="M22.176 7.2a11.239 11.239 0 1 1-5.743-5.54" fill="none" stroke="current" stroke-linecap="round" stroke-linejoin="round"></path><path d="M6 11.2h0a1.8 1.8 0 0 0 3 0h0" fill="none" stroke="current" stroke-linecap="round" stroke-linejoin="round"></path><path d="M15 11.2h0a1.8 1.8 0 0 0 3 0h0" fill="none" stroke="current" stroke-linecap="round" stroke-linejoin="round"></path><path fill="none" stroke="current" stroke-linecap="round" stroke-linejoin="round" d="M12 15.75h0s1.5 0 1.5 1.5v1.5s0 1.5-1.5 1.5h0s-1.5 0-1.5-1.5v-1.5s0-1.5 1.5-1.5"></path><path fill="none" stroke="current" stroke-linecap="round" stroke-linejoin="round" d="M20.25.75h3l-3 3h3"></path><path fill="none" stroke="current" stroke-linecap="round" stroke-linejoin="round" d="M14.25 5.25h3l-3 3h3"></path></svg>