<svg width="183" height="41" viewBox="0 0 183 41" fill="none" xmlns="http://www.w3.org/2000/svg">
<path d="M16.0463 34.2053H38.1099V31.1594H16.0463V34.2053ZM31.9811 17.4533H36.8841V28.1136H31.9811V17.4533ZM24.6266 6.79297H29.5296V28.1136H24.6266V6.79297ZM17.2721 11.3617H22.1751V28.1136H17.2721V11.3617Z" fill="#2B3E77"/>
<path d="M14.709 30.1932H0V28.1132H14.709V30.1932ZM4.08584 18.7529H0.817168V26.0331H4.08584V18.7529ZM8.98885 11.4727H5.72018V26.0331H8.98885V11.4727ZM13.8919 14.5928H10.6232V26.0331H13.8919V14.5928Z" fill="#2B3E77"/>
<path d="M58.1859 27.322H52.4399C50.2412 27.322 48.6545 26.8687 47.6799 25.962C46.7279 25.0327 46.2519 23.6047 46.2519 21.678V9.744C46.2519 9.31333 46.3425 9.00733 46.5239 8.826C46.7279 8.622 47.0452 8.52 47.4759 8.52H52.7459C53.1765 8.52 53.4825 8.622 53.6639 8.826C53.8679 9.00733 53.9699 9.31333 53.9699 9.744V19.06C53.9699 19.4227 54.0605 19.706 54.2419 19.91C54.4459 20.114 54.7065 20.216 55.0239 20.216H58.1859V9.744C58.1859 9.31333 58.2765 9.00733 58.4579 8.826C58.6619 8.622 58.9792 8.52 59.4099 8.52H64.6459C65.0765 8.52 65.3825 8.622 65.5639 8.826C65.7679 9.00733 65.8699 9.31333 65.8699 9.744V31.776C65.8699 32.2067 65.7679 32.524 65.5639 32.728C65.3825 32.9093 65.0765 33 64.6459 33H59.4099C58.9792 33 58.6619 32.9093 58.4579 32.728C58.2765 32.524 58.1859 32.2067 58.1859 31.776V27.322ZM87.6633 33H71.4793C71.0487 33 70.7313 32.9093 70.5273 32.728C70.346 32.524 70.2553 32.2067 70.2553 31.776V25.928C70.2553 24.6133 70.38 23.5367 70.6293 22.698C70.9013 21.8367 71.2753 21.134 71.7513 20.59C72.2273 20.046 72.794 19.6153 73.4513 19.298C74.1087 18.9807 74.8227 18.7087 75.5933 18.482L80.1493 17.054C80.512 16.9633 80.75 16.8273 80.8633 16.646C80.9993 16.4647 81.0673 16.1927 81.0673 15.83C81.0673 15.49 80.9993 15.2633 80.8633 15.15C80.7273 15.014 80.4893 14.946 80.1493 14.946H72.7713C72.3407 14.946 72.0233 14.8553 71.8193 14.674C71.638 14.47 71.5473 14.1527 71.5473 13.722V9.744C71.5473 9.31333 71.638 9.00733 71.8193 8.826C72.0233 8.622 72.3407 8.52 72.7713 8.52H82.8013C84.728 8.52 86.2013 9.00733 87.2213 9.982C88.264 10.934 88.7853 12.328 88.7853 14.164V17.36C88.7853 19.06 88.3093 20.3633 87.3573 21.27C86.4053 22.1767 85.1133 22.8793 83.4813 23.378L78.8573 24.84C78.5173 24.9307 78.2793 25.0327 78.1433 25.146C78.03 25.2593 77.9733 25.4973 77.9733 25.86V26.574H87.6633C88.094 26.574 88.4 26.676 88.5813 26.88C88.7853 27.0613 88.8873 27.3673 88.8873 27.798V31.776C88.8873 32.2067 88.7853 32.524 88.5813 32.728C88.4 32.9093 88.094 33 87.6633 33ZM104.992 33H94.2482C93.8175 33 93.5002 32.9093 93.2962 32.728C93.1148 32.524 93.0242 32.2067 93.0242 31.776V27.798C93.0242 27.3673 93.1148 27.0613 93.2962 26.88C93.5002 26.676 93.8175 26.574 94.2482 26.574H103.394C103.689 26.574 103.904 26.4833 104.04 26.302C104.199 26.098 104.278 25.86 104.278 25.588C104.278 25.2027 104.199 24.9193 104.04 24.738C103.904 24.5567 103.689 24.4547 103.394 24.432L98.2942 23.718C96.7075 23.4913 95.4268 22.97 94.4522 22.154C93.5002 21.338 93.0242 19.978 93.0242 18.074V14.504C93.0242 12.5773 93.6475 11.104 94.8942 10.084C96.1408 9.04133 97.8635 8.52 100.062 8.52H109.582C110.013 8.52 110.319 8.622 110.5 8.826C110.704 9.00733 110.806 9.31333 110.806 9.744V13.79C110.806 14.2207 110.704 14.538 110.5 14.742C110.319 14.9233 110.013 15.014 109.582 15.014H101.66C101.366 15.014 101.139 15.116 100.98 15.32C100.822 15.5013 100.742 15.7393 100.742 16.034C100.742 16.3287 100.822 16.578 100.98 16.782C101.139 16.986 101.366 17.0993 101.66 17.122L106.726 17.802C108.313 18.0287 109.594 18.55 110.568 19.366C111.543 20.182 112.03 21.542 112.03 23.446V27.016C112.03 28.9427 111.396 30.4273 110.126 31.47C108.88 32.49 107.168 33 104.992 33ZM127.657 33H122.149C121.719 33 121.401 32.9093 121.197 32.728C121.016 32.524 120.925 32.2067 120.925 31.776V15.082H115.927C115.497 15.082 115.179 14.9913 114.975 14.81C114.794 14.606 114.703 14.2887 114.703 13.858V9.744C114.703 9.31333 114.794 9.00733 114.975 8.826C115.179 8.622 115.497 8.52 115.927 8.52H133.879C134.31 8.52 134.616 8.622 134.797 8.826C135.001 9.00733 135.103 9.31333 135.103 9.744V13.858C135.103 14.2887 135.001 14.606 134.797 14.81C134.616 14.9913 134.31 15.082 133.879 15.082H128.881V31.776C128.881 32.2067 128.779 32.524 128.575 32.728C128.394 32.9093 128.088 33 127.657 33ZM146.603 15.66L145.005 20.828H150.343L148.745 15.66C148.654 15.456 148.552 15.3087 148.439 15.218C148.348 15.1273 148.235 15.082 148.099 15.082H147.249C147.113 15.082 146.988 15.1273 146.875 15.218C146.784 15.3087 146.693 15.456 146.603 15.66ZM144.665 31.776C144.665 32.2067 144.563 32.524 144.359 32.728C144.177 32.9093 143.871 33 143.441 33H138.443C138.012 33 137.695 32.9093 137.491 32.728C137.309 32.524 137.219 32.2067 137.219 31.776V22.8C137.219 22.12 137.321 21.338 137.525 20.454C137.751 19.57 138.091 18.5387 138.545 17.36L141.503 9.642C141.639 9.25666 141.843 8.97333 142.115 8.792C142.409 8.61067 142.783 8.52 143.237 8.52H152.383C152.813 8.52 153.165 8.61067 153.437 8.792C153.731 8.97333 153.947 9.25666 154.083 9.642L157.041 17.36C157.494 18.5387 157.823 19.57 158.027 20.454C158.253 21.338 158.367 22.12 158.367 22.8V31.776C158.367 32.2067 158.265 32.524 158.061 32.728C157.879 32.9093 157.573 33 157.143 33H152.009C151.555 33 151.215 32.9093 150.989 32.728C150.785 32.524 150.683 32.2067 150.683 31.776V27.016H144.665V31.776ZM173.443 33H167.935C167.505 33 167.187 32.9093 166.983 32.728C166.802 32.524 166.711 32.2067 166.711 31.776V15.082H161.713C161.283 15.082 160.965 14.9913 160.761 14.81C160.58 14.606 160.489 14.2887 160.489 13.858V9.744C160.489 9.31333 160.58 9.00733 160.761 8.826C160.965 8.622 161.283 8.52 161.713 8.52H179.665C180.096 8.52 180.402 8.622 180.583 8.826C180.787 9.00733 180.889 9.31333 180.889 9.744V13.858C180.889 14.2887 180.787 14.606 180.583 14.81C180.402 14.9913 180.096 15.082 179.665 15.082H174.667V31.776C174.667 32.2067 174.565 32.524 174.361 32.728C174.18 32.9093 173.874 33 173.443 33Z" fill="#2B3E77"/>
</svg>
