<svg xmlns="http://www.w3.org/2000/svg" fill="none" viewBox="0 0 24 24" stroke-width="1.5" height="48" width="48"><path stroke="current" stroke-linecap="round" stroke-linejoin="round" d="M12 23.25c6.213 0 11.25-5.037 11.25-11.25S18.213.75 12 .75.75 5.787.75 12 5.787 23.25 12 23.25Z"></path><path stroke="current" d="M8.25 9.375a.375.375 0 1 1 0-.75"></path><path stroke="current" d="M8.25 9.375a.375.375 0 1 0 0-.75"></path><path stroke="current" d="M15.75 9.375a.375.375 0 0 1 0-.75"></path><path stroke="current" d="M15.75 9.375a.375.375 0 0 0 0-.75"></path><path stroke="current" stroke-linecap="round" stroke-linejoin="round" d="M15.75 14.25h-7.5a1.5 1.5 0 0 0 0 3h7.5a1.5 1.5 0 0 0 0-3Z"></path></svg>